<svg width="13" height="16" viewBox="0 0 13 16" fill="none" xmlns="http://www.w3.org/2000/svg">
<path d="M6.5 15.4489C6.49262 14.6534 6.31352 13.868 5.97392 13.1419C5.63433 12.4158 5.1416 11.7648 4.52667 11.2298L2.81533 9.74C2.24326 9.23962 1.78638 8.63058 1.47382 7.95173C1.16126 7.27288 0.999893 6.53912 1 5.79723C1 2.88851 3.46267 0.5 6.5 0.5C9.53733 0.5 12 2.88787 12 5.7966C12 7.29213 11.3407 8.73277 10.1847 9.73936L8.47267 11.2291C7.85777 11.7642 7.36505 12.4152 7.02547 13.1413C6.68588 13.8673 6.50742 14.6534 6.5 15.4489ZM6.5 15.4489V15.5V15.4636M6.5 7.52128C6.05797 7.52128 5.63405 7.35315 5.32149 7.05389C5.00893 6.75463 4.83333 6.34875 4.83333 5.92553C4.83333 5.50231 5.00893 5.09643 5.32149 4.79717C5.63405 4.49791 6.05797 4.32979 6.5 4.32979C6.94203 4.32979 7.36595 4.49791 7.67851 4.79717C7.99107 5.09643 8.16667 5.50231 8.16667 5.92553C8.16667 6.34875 7.99107 6.75463 7.67851 7.05389C7.36595 7.35315 6.94203 7.52128 6.5 7.52128Z" fill="#D9D9D9"/>
<path d="M6.5 15.4489C6.49262 14.6534 6.31352 13.868 5.97392 13.1419C5.63433 12.4158 5.1416 11.7648 4.52667 11.2298L2.81533 9.74C2.24326 9.23962 1.78638 8.63058 1.47382 7.95173C1.16126 7.27288 0.999893 6.53912 1 5.79723C1 2.88851 3.46267 0.5 6.5 0.5C9.53733 0.5 12 2.88787 12 5.7966C12 7.29213 11.3407 8.73277 10.1847 9.73936L8.47267 11.2291C7.85777 11.7642 7.36505 12.4152 7.02547 13.1413C6.68588 13.8673 6.50742 14.6534 6.5 15.4489ZM6.5 15.4489V15.5V15.4636M6.5 7.52128C6.05797 7.52128 5.63405 7.35315 5.32149 7.05389C5.00893 6.75463 4.83333 6.34875 4.83333 5.92553C4.83333 5.50231 5.00893 5.09643 5.32149 4.79717C5.63405 4.49791 6.05797 4.32979 6.5 4.32979C6.94203 4.32979 7.36595 4.49791 7.67851 4.79717C7.99107 5.09643 8.16667 5.50231 8.16667 5.92553C8.16667 6.34875 7.99107 6.75463 7.67851 7.05389C7.36595 7.35315 6.94203 7.52128 6.5 7.52128Z" stroke="#F4205E"/>
</svg>
